Cuprum-Italic.ufo
<glyph name="exclam" format="2">
  <advance width="230"/>
  <unicode hex="0021"/>
  <outline>
    <contour>
      <point x="105" y="185" type="line"/>
      <point x="185" y="185" type="line"/>
      <point x="293" y="700" type="line"/>
      <point x="183" y="700" type="line"/>
    </contour>
    <contour>
      <point x="67" y="-5" type="line"/>
      <point x="157" y="-5" type="line"/>
      <point x="176" y="105" type="line"/>
      <point x="86" y="105" type="line"/>
    </contour>
  </outline>
</glyph>
<glyph name="numbersign" format="2">
  <advance width="570"/>
  <unicode hex="0023"/>
  <outline>
    <contour>
      <point x="85" y="0" type="line"/>
      <point x="175" y="0" type="line"/>
      <point x="240" y="200" type="line"/>
      <point x="350" y="200" type="line"/>
      <point x="285" y="0" type="line"/>
      <point x="375" y="0" type="line"/>
      <point x="440" y="200" type="line"/>
      <point x="555" y="200" type="line"/>
      <point x="567" y="270" type="line"/>
      <point x="462" y="270" type="line"/>
      <point x="515" y="430" type="line"/>
      <point x="625" y="430" type="line"/>
      <point x="638" y="500" type="line"/>
      <point x="543" y="500" type="line"/>
      <point x="608" y="700" type="line"/>
      <point x="518" y="700" type="line"/>
      <point x="453" y="500" type="line"/>
      <point x="343" y="500" type="line"/>
      <point x="408" y="700" type="line"/>
      <point x="318" y="700" type="line"/>
      <point x="253" y="500" type="line"/>
      <point x="138" y="500" type="line"/>
      <point x="125" y="430" type="line"/>
      <point x="225" y="430" type="line"/>
      <point x="172" y="270" type="line"/>
      <point x="67" y="270" type="line"/>
      <point x="55" y="200" type="line"/>
      <point x="150" y="200" type="line"/>
    </contour>
    <contour>
      <point x="257" y="270" type="line"/>
      <point x="310" y="430" type="line"/>
      <point x="430" y="430" type="line"/>
      <point x="377" y="270" type="line"/>
    </contour>
  </outline>
</glyph>
<glyph name="parenright" format="2">
  <advance width="246"/>
  <unicode hex="0029"/>
  <outline>
    <contour>
      <point x="22" y="-190" type="line"/>
      <point x="164" y="-10"/>
      <point x="222" y="150"/>
      <point x="245" y="280" type="curve" smooth="yes"/>
      <point x="268" y="410"/>
      <point x="266" y="570"/>
      <point x="188" y="750" type="curve"/>
      <point x="126" y="720" type="line"/>
      <point x="168" y="580"/>
      <point x="175" y="450"/>
      <point x="145" y="280" type="curve" smooth="yes"/>
      <point x="115" y="110"/>
      <point x="62" y="-20"/>
      <point x="-28" y="-160" type="curve"/>
    </contour>
  </outline>
</glyph>
<glyph name="zero" format="2">
  <advance width="510"/>
  <unicode hex="0030"/>
  <outline>
    <contour>
      <point x="253" y="-10" type="curve" smooth="yes"/>
      <point x="378" y="-10"/>
      <point x="472" y="70"/>
      <point x="521" y="350" type="curve" smooth="yes"/>
      <point x="571" y="630"/>
      <point x="505" y="710"/>
      <point x="380" y="710" type="curve" smooth="yes"/>
      <point x="255" y="710"/>
      <point x="161" y="630"/>
      <point x="111" y="350" type="curve" smooth="yes"/>
      <point x="62" y="70"/>
      <point x="128" y="-10"/>
    </contour>
    <contour>
      <point x="263" y="50" type="curve" smooth="yes"/>
      <point x="208" y="50"/>
      <point x="159" y="110"/>
      <point x="201" y="350" type="curve" smooth="yes"/>
      <point x="244" y="590"/>
      <point x="314" y="650"/>
      <point x="369" y="650" type="curve" smooth="yes"/>
      <point x="424" y="650"/>
      <point x="474" y="590"/>
      <point x="431" y="350" type="curve" smooth="yes"/>
      <point x="389" y="110"/>
      <point x="318" y="50"/>
    </contour>
  </outline>
</glyph>
<glyph name="two" format="2">
  <advance width="390"/>
  <unicode hex="0032"/>
  <outline>
    <contour>
      <point x="10" y="0" type="line"/>
      <point x="360" y="0" type="line"/>
      <point x="372" y="70" type="line"/>
      <point x="117" y="70" type="line"/>
      <point x="331" y="290"/>
      <point x="425" y="370"/>
      <point x="448" y="500" type="curve" smooth="yes"/>
      <point x="474" y="650"/>
      <point x="425" y="710"/>
      <point x="295" y="710" type="curve" smooth="yes"/>
      <point x="235" y="710"/>
      <point x="173" y="700"/>
      <point x="141" y="690" type="curve"/>
      <point x="133" y="645" type="line"/>
      <point x="273" y="645" type="line" smooth="yes"/>
      <point x="343" y="645"/>
      <point x="376" y="605"/>
      <point x="358" y="500" type="curve" smooth="yes"/>
      <point x="338" y="390"/>
      <point x="268" y="330"/>
      <point x="24" y="80" type="curve"/>
    </contour>
  </outline>
</glyph>
<glyph name="four" format="2">
  <advance width="470"/>
  <unicode hex="0034"/>
  <outline>
    <contour>
      <point x="290" y="0" type="line"/>
      <point x="380" y="0" type="line"/>
      <point x="411" y="180" type="line"/>
      <point x="471" y="180" type="line"/>
      <point x="484" y="250" type="line"/>
      <point x="424" y="250" type="line"/>
      <point x="503" y="700" type="line"/>
      <point x="403" y="700" type="line"/>
      <point x="75" y="260" type="line"/>
      <point x="61" y="180" type="line"/>
      <point x="321" y="180" type="line"/>
    </contour>
    <contour>
      <point x="159" y="250" type="line"/>
      <point x="383" y="555" type="line"/>
      <point x="387" y="555" type="line"/>
      <point x="334" y="250" type="line"/>
    </contour>
  </outline>
</glyph>
<glyph name="nine" format="2">
  <advance width="455"/>
  <unicode hex="0039"/>
  <outline>
    <contour>
      <point x="208" y="-10" type="curve" smooth="yes"/>
      <point x="333" y="-10"/>
      <point x="417" y="70"/>
      <point x="454" y="280" type="curve" smooth="yes"/>
      <point x="493" y="500" type="line" smooth="yes"/>
      <point x="519" y="650"/>
      <point x="470" y="710"/>
      <point x="345" y="710" type="curve" smooth="yes"/>
      <point x="220" y="710"/>
      <point x="149" y="650"/>
      <point x="123" y="500" type="curve" smooth="yes"/>
      <point x="94" y="340"/>
      <point x="144" y="280"/>
      <point x="244" y="280" type="curve" smooth="yes"/>
      <point x="284" y="280"/>
      <point x="336" y="290"/>
      <point x="367" y="300" type="curve"/>
      <point x="335" y="115"/>
      <point x="274" y="55"/>
      <point x="199" y="55" type="curve" smooth="yes"/>
      <point x="69" y="55" type="line"/>
      <point x="61" y="10" type="line"/>
      <point x="90" y="0"/>
      <point x="148" y="-10"/>
    </contour>
    <contour>
      <point x="309" y="340" type="line"/>
      <point x="224" y="340"/>
      <point x="192" y="380"/>
      <point x="213" y="500" type="curve" smooth="yes"/>
      <point x="232" y="610"/>
      <point x="279" y="650"/>
      <point x="334" y="650" type="curve" smooth="yes"/>
      <point x="389" y="650"/>
      <point x="422" y="610"/>
      <point x="403" y="500" type="curve" smooth="yes"/>
      <point x="374" y="340" type="line"/>
    </contour>
  </outline>
</glyph>
<glyph name="less" format="2">
  <advance width="400"/>
  <unicode hex="003C"/>
  <outline>
    <contour>
      <point x="361" y="10" type="line"/>
      <point x="378" y="105" type="line"/>
      <point x="173" y="249" type="line"/>
      <point x="175" y="256" type="line"/>
      <point x="430" y="400" type="line"/>
      <point x="447" y="495" type="line"/>
      <point x="92" y="295" type="line"/>
      <point x="77" y="210" type="line"/>
    </contour>
  </outline>
</glyph>
<glyph name="equal" format="2">
  <advance width="430"/>
  <unicode hex="003D"/>
  <outline>
    <contour>
      <point x="60" y="175" type="line"/>
      <point x="430" y="175" type="line"/>
      <point x="444" y="250" type="line"/>
      <point x="74" y="250" type="line"/>
    </contour>
    <contour>
      <point x="91" y="350" type="line"/>
      <point x="461" y="350" type="line"/>
      <point x="474" y="425" type="line"/>
      <point x="104" y="425" type="line"/>
    </contour>
  </outline>
</glyph>
<glyph name="K" format="2">
  <advance width="490"/>
  <unicode hex="004B"/>
  <outline>
    <contour>
      <point x="70" y="0" type="line"/>
      <point x="160" y="0" type="line"/>
      <point x="221" y="350" type="line"/>
      <point x="375" y="0" type="line"/>
      <point x="480" y="0" type="line"/>
      <point x="317" y="355" type="line"/>
      <point x="583" y="700" type="line"/>
      <point x="478" y="700" type="line"/>
      <point x="223" y="360" type="line"/>
      <point x="283" y="700" type="line"/>
      <point x="193" y="700" type="line"/>
    </contour>
  </outline>
</glyph>
<glyph name="T" format="2">
  <advance width="430"/>
  <unicode hex="0054"/>
  <outline>
    <contour>
      <point x="170" y="0" type="line"/>
      <point x="260" y="0" type="line"/>
      <point x="371" y="630" type="line"/>
      <point x="531" y="630" type="line"/>
      <point x="543" y="700" type="line"/>
      <point x="133" y="700" type="line"/>
      <point x="121" y="630" type="line"/>
      <point x="281" y="630" type="line"/>
    </contour>
  </outline>
</glyph>
<glyph name="U" format="2">
  <advance width="520"/>
  <unicode hex="0055"/>
  <anchor x="258" y="0" name="bottom"/>
  <anchor x="424" y="10" name="ogonek"/>
  <anchor x="376" y="700" name="top"/>
  <anchor x="623" y="700" name="topright"/>
  <outline>
    <contour>
      <point x="258" y="-10" type="curve" smooth="yes"/>
      <point x="398" y="-10"/>
      <point x="468" y="50"/>
      <point x="502" y="240" type="curve" smooth="yes"/>
      <point x="583" y="700" type="line"/>
      <point x="493" y="700" type="line"/>
      <point x="412" y="240" type="line" smooth="yes"/>
      <point x="385" y="90"/>
      <point x="338" y="50"/>
      <point x="268" y="50" type="curve" smooth="yes"/>
      <point x="198" y="50"/>
      <point x="165" y="90"/>
      <point x="192" y="240" type="curve" smooth="yes"/>
      <point x="273" y="700" type="line"/>
      <point x="183" y="700" type="line"/>
      <point x="102" y="240" type="line" smooth="yes"/>
      <point x="68" y="50"/>
      <point x="118" y="-10"/>
    </contour>
  </outline>
</glyph>
<glyph name="Y" format="2">
  <advance width="450"/>
  <unicode hex="0059"/>
  <anchor x="223" y="0" name="bottom"/>
  <anchor x="338" y="700" name="top"/>
  <anchor x="99" y="700" name="topleft"/>
  <outline>
    <contour>
      <point x="180" y="0" type="line"/>
      <point x="270" y="0" type="line"/>
      <point x="308" y="220" type="line"/>
      <point x="563" y="700" type="line"/>
      <point x="473" y="700" type="line"/>
      <point x="285" y="345" type="line"/>
      <point x="223" y="700" type="line"/>
      <point x="133" y="700" type="line"/>
      <point x="218" y="220" type="line"/>
    </contour>
  </outline>
</glyph>
<glyph name="Z" format="2">
  <advance width="405"/>
  <unicode hex="005A"/>
  <outline>
    <contour>
      <point x="20" y="0" type="line"/>
      <point x="380" y="0" type="line"/>
      <point x="392" y="70" type="line"/>
      <point x="137" y="70" type="line"/>
      <point x="496" y="635" type="line"/>
      <point x="508" y="700" type="line"/>
      <point x="148" y="700" type="line"/>
      <point x="136" y="630" type="line"/>
      <point x="391" y="630" type="line"/>
      <point x="31" y="65" type="line"/>
    </contour>
  </outline>
</glyph>
<glyph name="bracketright" format="2">
  <advance width="260"/>
  <unicode hex="005D"/>
  <outline>
    <contour>
      <point x="-31" y="-180" type="line"/>
      <point x="158" y="-180" type="line"/>
      <point x="320" y="740" type="line"/>
      <point x="130" y="740" type="line"/>
      <point x="119" y="680" type="line"/>
      <point x="219" y="680" type="line"/>
      <point x="78" y="-120" type="line"/>
      <point x="-21" y="-120" type="line"/>
    </contour>
  </outline>
</glyph>
<glyph name="asciicircum" format="2">
  <advance width="445"/>
  <unicode hex="005E"/>
  <outline>
    <contour>
      <point x="167" y="410" type="line"/>
      <point x="327" y="610" type="line"/>
      <point x="332" y="610" type="line"/>
      <point x="422" y="410" type="line"/>
      <point x="494" y="450" type="line"/>
      <point x="388" y="700" type="line"/>
      <point x="303" y="700" type="line"/>
      <point x="109" y="450" type="line"/>
    </contour>
  </outline>
</glyph>
<glyph name="h" format="2">
  <advance width="480"/>
  <unicode hex="0068"/>
  <outline>
    <contour>
      <point x="70" y="0" type="line"/>
      <point x="160" y="0" type="line"/>
      <point x="235" y="430" type="line"/>
      <point x="252" y="440"/>
      <point x="284" y="450"/>
      <point x="309" y="450" type="curve" smooth="yes"/>
      <point x="364" y="450"/>
      <point x="400" y="430"/>
      <point x="388" y="360" type="curve" smooth="yes"/>
      <point x="325" y="0" type="line"/>
      <point x="415" y="0" type="line"/>
      <point x="478" y="360" type="line" smooth="yes"/>
      <point x="499" y="480"/>
      <point x="444" y="510"/>
      <point x="359" y="510" type="curve" smooth="yes"/>
      <point x="314" y="510"/>
      <point x="278" y="500"/>
      <point x="245" y="485" type="curve"/>
      <point x="283" y="700" type="line"/>
      <point x="193" y="700" type="line"/>
    </contour>
  </outline>
</glyph>
<glyph name="u" format="2">
  <advance width="475"/>
  <unicode hex="0075"/>
  <anchor x="218" y="0" name="bottom"/>
  <anchor x="383" y="10" name="ogonek"/>
  <anchor x="328" y="500" name="top"/>
  <anchor x="531" y="500" name="topright"/>
  <outline>
    <contour>
      <point x="218" y="-10" type="curve" smooth="yes"/>
      <point x="258" y="-10"/>
      <point x="300" y="5"/>
      <point x="330" y="30" type="curve"/>
      <point x="335" y="30" type="line"/>
      <point x="335" y="0" type="line"/>
      <point x="410" y="0" type="line"/>
      <point x="498" y="500" type="line"/>
      <point x="408" y="500" type="line"/>
      <point x="332" y="70" type="line"/>
      <point x="315" y="60"/>
      <point x="283" y="50"/>
      <point x="258" y="50" type="curve" smooth="yes"/>
      <point x="203" y="50"/>
      <point x="167" y="70"/>
      <point x="179" y="140" type="curve" smooth="yes"/>
      <point x="243" y="500" type="line"/>
      <point x="153" y="500" type="line"/>
      <point x="89" y="140" type="line" smooth="yes"/>
      <point x="68" y="20"/>
      <point x="123" y="-10"/>
    </contour>
  </outline>
</glyph>
<glyph name="exclamdown" format="2">
  <advance width="230"/>
  <unicode hex="00A1"/>
  <outline>
    <contour>
      <point x="60" y="0" type="line"/>
      <point x="170" y="0" type="line"/>
      <point x="243" y="515" type="line"/>
      <point x="163" y="515" type="line"/>
    </contour>
    <contour>
      <point x="172" y="595" type="line"/>
      <point x="262" y="595" type="line"/>
      <point x="282" y="705" type="line"/>
      <point x="192" y="705" type="line"/>
    </contour>
  </outline>
</glyph>
<glyph name="dieresis" format="2">
  <advance width="290"/>
  <unicode hex="00A8"/>
  <outline>
    <contour>
      <point x="282" y="580" type="line"/>
      <point x="372" y="580" type="line"/>
      <point x="391" y="690" type="line"/>
      <point x="301" y="690" type="line"/>
    </contour>
    <contour>
      <point x="122" y="580" type="line"/>
      <point x="212" y="580" type="line"/>
      <point x="231" y="690" type="line"/>
      <point x="141" y="690" type="line"/>
    </contour>
  </outline>
</glyph>
<glyph name="guillemetleft" format="2">
  <advance width="435"/>
  <unicode hex="00AB"/>
  <outline>
    <contour>
      <point x="347" y="45" type="line"/>
      <point x="419" y="85" type="line"/>
      <point x="328" y="248" type="line"/>
      <point x="329" y="252" type="line"/>
      <point x="478" y="415" type="line"/>
      <point x="420" y="455" type="line"/>
      <point x="229" y="250" type="line"/>
    </contour>
    <contour>
      <point x="182" y="45" type="line"/>
      <point x="254" y="85" type="line"/>
      <point x="163" y="248" type="line"/>
      <point x="164" y="252" type="line"/>
      <point x="313" y="415" type="line"/>
      <point x="255" y="455" type="line"/>
      <point x="64" y="250" type="line"/>
    </contour>
  </outline>
</glyph>
<glyph name="twosuperior" format="2">
  <advance width="255"/>
  <unicode hex="00B2"/>
  <outline>
    <contour>
      <point x="100" y="400" type="line"/>
      <point x="295" y="400" type="line"/>
      <point x="304" y="450" type="line"/>
      <point x="184" y="450" type="line"/>
      <point x="274" y="510"/>
      <point x="322" y="555"/>
      <point x="332" y="610" type="curve" smooth="yes"/>
      <point x="343" y="670"/>
      <point x="314" y="705"/>
      <point x="244" y="705" type="curve" smooth="yes"/>
      <point x="214" y="705"/>
      <point x="183" y="700"/>
      <point x="162" y="694" type="curve"/>
      <point x="155" y="655" type="line"/>
      <point x="220" y="655" type="line" smooth="yes"/>
      <point x="255" y="655"/>
      <point x="271" y="635"/>
      <point x="267" y="610" type="curve" smooth="yes"/>
      <point x="258" y="560"/>
      <point x="189" y="510"/>
      <point x="110" y="455" type="curve"/>
    </contour>
  </outline>
</glyph>
<glyph name="guillemetright" format="2">
  <advance width="435"/>
  <unicode hex="00BB"/>
  <outline>
    <contour>
      <point x="267" y="45" type="line"/>
      <point x="459" y="250" type="line"/>
      <point x="340" y="455" type="line"/>
      <point x="268" y="415" type="line"/>
      <point x="359" y="252" type="line"/>
      <point x="358" y="248" type="line"/>
      <point x="209" y="85" type="line"/>
    </contour>
    <contour>
      <point x="102" y="45" type="line"/>
      <point x="294" y="250" type="line"/>
      <point x="175" y="455" type="line"/>
      <point x="103" y="415" type="line"/>
      <point x="194" y="252" type="line"/>
      <point x="193" y="248" type="line"/>
      <point x="44" y="85" type="line"/>
    </contour>
  </outline>
</glyph>
<glyph name="onehalf" format="2">
  <advance width="590"/>
  <unicode hex="00BD"/>
  <outline>
    <contour>
      <point x="50" y="0" type="line"/>
      <point x="130" y="0" type="line"/>
      <point x="643" y="700" type="line"/>
      <point x="563" y="700" type="line"/>
    </contour>
    <contour>
      <point x="335" y="0" type="line"/>
      <point x="530" y="0" type="line"/>
      <point x="538" y="50" type="line"/>
      <point x="418" y="50" type="line"/>
      <point x="509" y="110"/>
      <point x="557" y="155"/>
      <point x="567" y="210" type="curve" smooth="yes"/>
      <point x="577" y="270"/>
      <point x="548" y="305"/>
      <point x="478" y="305" type="curve" smooth="yes"/>
      <point x="448" y="305"/>
      <point x="417" y="300"/>
      <point x="396" y="294" type="curve"/>
      <point x="389" y="255" type="line"/>
      <point x="454" y="255" type="line" smooth="yes"/>
      <point x="489" y="255"/>
      <point x="506" y="235"/>
      <point x="502" y="210" type="curve" smooth="yes"/>
      <point x="493" y="160"/>
      <point x="424" y="110"/>
      <point x="344" y="55" type="curve"/>
    </contour>
    <contour>
      <point x="185" y="400" type="line"/>
      <point x="255" y="400" type="line"/>
      <point x="308" y="700" type="line"/>
      <point x="273" y="700" type="line"/>
      <point x="238" y="700"/>
      <point x="197" y="695"/>
      <point x="176" y="688" type="curve"/>
      <point x="169" y="650" type="line"/>
      <point x="229" y="650" type="line"/>
    </contour>
  </outline>
</glyph>
<glyph name="Agrave" format="2">
  <advance width="510"/>
  <unicode hex="00C0"/>
  <outline>
    <contour>
      <point x="20" y="0" type="line"/>
      <point x="110" y="0" type="line"/>
      <point x="186" y="180" type="line"/>
      <point x="386" y="180" type="line"/>
      <point x="400" y="0" type="line"/>
      <point x="490" y="0" type="line"/>
      <point x="443" y="700" type="line"/>
      <point x="313" y="700" type="line"/>
    </contour>
    <contour>
      <point x="214" y="250" type="line"/>
      <point x="358" y="600" type="line"/>
      <point x="362" y="600" type="line"/>
      <point x="384" y="250" type="line"/>
    </contour>
    <contour>
      <point x="362" y="750" type="line"/>
      <point x="422" y="750" type="line"/>
      <point x="410" y="880" type="line"/>
      <point x="315" y="880" type="line"/>
    </contour>
  </outline>
</glyph>
<glyph name="Uacute" format="2">
  <advance width="520"/>
  <unicode hex="00DA"/>
  <outline>
    <contour>
      <point x="258" y="-10" type="curve" smooth="yes"/>
      <point x="398" y="-10"/>
      <point x="468" y="50"/>
      <point x="502" y="240" type="curve" smooth="yes"/>
      <point x="583" y="700" type="line"/>
      <point x="493" y="700" type="line"/>
      <point x="412" y="240" type="line" smooth="yes"/>
      <point x="385" y="90"/>
      <point x="338" y="50"/>
      <point x="268" y="50" type="curve" smooth="yes"/>
      <point x="198" y="50"/>
      <point x="165" y="90"/>
      <point x="192" y="240" type="curve" smooth="yes"/>
      <point x="273" y="700" type="line"/>
      <point x="183" y="700" type="line"/>
      <point x="102" y="240" type="line" smooth="yes"/>
      <point x="68" y="50"/>
      <point x="118" y="-10"/>
    </contour>
    <contour>
      <point x="355" y="740" type="line"/>
      <point x="415" y="740" type="line"/>
      <point x="508" y="870" type="line"/>
      <point x="413" y="870" type="line"/>
    </contour>
  </outline>
</glyph>
<glyph name="Ucircumflex" format="2">
  <advance width="520"/>
  <unicode hex="00DB"/>
  <outline>
    <contour>
      <point x="258" y="-10" type="curve" smooth="yes"/>
      <point x="398" y="-10"/>
      <point x="468" y="50"/>
      <point x="502" y="240" type="curve" smooth="yes"/>
      <point x="583" y="700" type="line"/>
      <point x="493" y="700" type="line"/>
      <point x="412" y="240" type="line" smooth="yes"/>
      <point x="385" y="90"/>
      <point x="338" y="50"/>
      <point x="268" y="50" type="curve" smooth="yes"/>
      <point x="198" y="50"/>
      <point x="165" y="90"/>
      <point x="192" y="240" type="curve" smooth="yes"/>
      <point x="273" y="700" type="line"/>
      <point x="183" y="700" type="line"/>
      <point x="102" y="240" type="line" smooth="yes"/>
      <point x="68" y="50"/>
      <point x="118" y="-10"/>
    </contour>
    <contour>
      <point x="268" y="740" type="line"/>
      <point x="328" y="740" type="line"/>
      <point x="403" y="814" type="line"/>
      <point x="453" y="740" type="line"/>
      <point x="513" y="740" type="line"/>
      <point x="461" y="870" type="line"/>
      <point x="366" y="870" type="line"/>
    </contour>
  </outline>
</glyph>
<glyph name="icircumflex" format="2">
  <advance width="215"/>
  <unicode hex="00EE"/>
  <outline>
    <contour>
      <point x="63" y="0" type="line"/>
      <point x="153" y="0" type="line"/>
      <point x="241" y="500" type="line"/>
      <point x="151" y="500" type="line"/>
    </contour>
    <contour>
      <point x="81" y="550" type="line"/>
      <point x="141" y="550" type="line"/>
      <point x="217" y="624" type="line"/>
      <point x="266" y="550" type="line"/>
      <point x="326" y="550" type="line"/>
      <point x="274" y="680" type="line"/>
      <point x="179" y="680" type="line"/>
    </contour>
  </outline>
</glyph>
<glyph name="idieresis" format="2">
  <advance width="230"/>
  <unicode hex="00EF"/>
  <outline>
    <contour>
      <point x="70" y="0" type="line"/>
      <point x="160" y="0" type="line"/>
      <point x="248" y="500" type="line"/>
      <point x="158" y="500" type="line"/>
    </contour>
    <contour>
      <point x="90" y="570" type="line"/>
      <point x="180" y="570" type="line"/>
      <point x="199" y="680" type="line"/>
      <point x="109" y="680" type="line"/>
    </contour>
    <contour>
      <point x="250" y="570" type="line"/>
      <point x="340" y="570" type="line"/>
      <point x="359" y="680" type="line"/>
      <point x="269" y="680" type="line"/>
    </contour>
  </outline>
</glyph>
<glyph name="Imacron" format="2">
  <advance width="220"/>
  <unicode hex="012A"/>
  <outline>
    <contour>
      <point x="65" y="0" type="line"/>
      <point x="155" y="0" type="line"/>
      <point x="278" y="700" type="line"/>
      <point x="188" y="700" type="line"/>
    </contour>
    <contour>
      <point x="129" y="760" type="line"/>
      <point x="359" y="760" type="line"/>
      <point x="369" y="820" type="line"/>
      <point x="139" y="820" type="line"/>
    </contour>
  </outline>
</glyph>
<glyph name="Iogonek" format="2">
  <advance width="220"/>
  <unicode hex="012E"/>
  <outline>
    <contour>
      <point x="106" y="-160" type="curve" smooth="yes"/>
      <point x="151" y="-160"/>
      <point x="184" y="-145"/>
      <point x="184" y="-145" type="curve"/>
      <point x="191" y="-104" type="line"/>
      <point x="156" y="-104" type="line" smooth="yes"/>
      <point x="111" y="-104"/>
      <point x="99" y="-90"/>
      <point x="107" y="-45" type="curve" smooth="yes"/>
      <point x="115" y="0" type="line"/>
      <point x="155" y="0" type="line"/>
      <point x="278" y="700" type="line"/>
      <point x="188" y="700" type="line"/>
      <point x="65" y="0" type="line"/>
      <point x="75" y="0" type="line"/>
      <point x="75" y="0"/>
      <point x="43" y="-35"/>
      <point x="35" y="-80" type="curve" smooth="yes"/>
      <point x="27" y="-130"/>
      <point x="51" y="-160"/>
    </contour>
  </outline>
</glyph>
<glyph name="idotless" format="2">
  <advance width="230"/>
  <unicode hex="0131"/>
  <anchor x="113" y="0" name="bottom"/>
  <anchor x="163" y="10" name="ogonek"/>
  <anchor x="200" y="500" name="top"/>
  <outline>
    <contour>
      <point x="70" y="0" type="line"/>
      <point x="160" y="0" type="line"/>
      <point x="248" y="500" type="line"/>
      <point x="158" y="500" type="line"/>
    </contour>
  </outline>
</glyph>
<glyph name="Jcircumflex" format="2">
  <advance width="353"/>
  <unicode hex="0134"/>
  <outline>
    <contour>
      <point x="88" y="-10" type="curve" smooth="yes"/>
      <point x="228" y="-10"/>
      <point x="298" y="50"/>
      <point x="332" y="240" type="curve" smooth="yes"/>
      <point x="413" y="700" type="line"/>
      <point x="323" y="700" type="line"/>
      <point x="242" y="240" type="line" smooth="yes"/>
      <point x="216" y="95"/>
      <point x="169" y="55"/>
      <point x="99" y="55" type="curve" smooth="yes"/>
      <point x="9" y="55" type="line"/>
      <point x="1" y="10" type="line"/>
      <point x="25" y="0"/>
      <point x="58" y="-10"/>
    </contour>
    <contour>
      <point x="253" y="740" type="line"/>
      <point x="313" y="740" type="line"/>
      <point x="388" y="814" type="line"/>
      <point x="438" y="740" type="line"/>
      <point x="498" y="740" type="line"/>
      <point x="446" y="870" type="line"/>
      <point x="351" y="870" type="line"/>
    </contour>
  </outline>
</glyph>
<glyph name="jcircumflex" format="2">
  <advance width="240"/>
  <unicode hex="0135"/>
  <outline>
    <contour>
      <point x="-7" y="-210" type="curve" smooth="yes"/>
      <point x="72" y="-210"/>
      <point x="138" y="-180"/>
      <point x="162" y="-40" type="curve" smooth="yes"/>
      <point x="258" y="500" type="line"/>
      <point x="168" y="500" type="line"/>
      <point x="72" y="-40" type="line" smooth="yes"/>
      <point x="57" y="-130"/>
      <point x="13" y="-150"/>
      <point x="-16" y="-150" type="curve" smooth="yes"/>
      <point x="-86" y="-150" type="line"/>
      <point x="-93" y="-190" type="line"/>
      <point x="-70" y="-200"/>
      <point x="-37" y="-210"/>
    </contour>
    <contour>
      <point x="96" y="550" type="line"/>
      <point x="156" y="550" type="line"/>
      <point x="232" y="624" type="line"/>
      <point x="281" y="550" type="line"/>
      <point x="341" y="550" type="line"/>
      <point x="289" y="680" type="line"/>
      <point x="194" y="680" type="line"/>
    </contour>
  </outline>
</glyph>
<glyph name="ldot" format="2">
  <advance width="360"/>
  <unicode hex="0140"/>
  <outline>
    <contour>
      <point x="70" y="0" type="line"/>
      <point x="160" y="0" type="line"/>
      <point x="283" y="700" type="line"/>
      <point x="193" y="700" type="line"/>
    </contour>
    <contour>
      <point x="272" y="295" type="line"/>
      <point x="362" y="295" type="line"/>
      <point x="381" y="405" type="line"/>
      <point x="291" y="405" type="line"/>
    </contour>
  </outline>
</glyph>
<glyph name="omacron" format="2">
  <advance width="470"/>
  <unicode hex="014D"/>
  <outline>
    <contour>
      <point x="233" y="-10" type="curve" smooth="yes"/>
      <point x="353" y="-10"/>
      <point x="429" y="55"/>
      <point x="464" y="250" type="curve" smooth="yes"/>
      <point x="498" y="445"/>
      <point x="444" y="510"/>
      <point x="324" y="510" type="curve" smooth="yes"/>
      <point x="204" y="510"/>
      <point x="128" y="445"/>
      <point x="94" y="250" type="curve" smooth="yes"/>
      <point x="59" y="55"/>
      <point x="113" y="-10"/>
    </contour>
    <contour>
      <point x="242" y="45" type="curve" smooth="yes"/>
      <point x="192" y="45"/>
      <point x="155" y="90"/>
      <point x="184" y="250" type="curve" smooth="yes"/>
      <point x="212" y="410"/>
      <point x="265" y="455"/>
      <point x="315" y="455" type="curve" smooth="yes"/>
      <point x="365" y="455"/>
      <point x="402" y="410"/>
      <point x="374" y="250" type="curve" smooth="yes"/>
      <point x="345" y="90"/>
      <point x="292" y="45"/>
    </contour>
    <contour>
      <point x="222" y="580" type="line"/>
      <point x="452" y="580" type="line"/>
      <point x="462" y="640" type="line"/>
      <point x="232" y="640" type="line"/>
    </contour>
  </outline>
</glyph>
<glyph name="oe" format="2">
  <advance width="715"/>
  <unicode hex="0153"/>
  <outline>
    <contour>
      <point x="228" y="-10" type="curve" smooth="yes"/>
      <point x="283" y="-10"/>
      <point x="342" y="20"/>
      <point x="377" y="70" type="curve"/>
      <point x="402" y="15"/>
      <point x="443" y="-10"/>
      <point x="533" y="-10" type="curve" smooth="yes"/>
      <point x="573" y="-10"/>
      <point x="625" y="0"/>
      <point x="656" y="10" type="curve"/>
      <point x="663" y="50" type="line"/>
      <point x="563" y="50" type="line" smooth="yes"/>
      <point x="463" y="50"/>
      <point x="430" y="90"/>
      <point x="453" y="220" type="curve"/>
      <point x="548" y="220" type="line" smooth="yes"/>
      <point x="673" y="220"/>
      <point x="732" y="270"/>
      <point x="748" y="360" type="curve" smooth="yes"/>
      <point x="765" y="455"/>
      <point x="719" y="510"/>
      <point x="599" y="510" type="curve" smooth="yes"/>
      <point x="534" y="510"/>
      <point x="475" y="480"/>
      <point x="440" y="430" type="curve"/>
      <point x="424" y="480"/>
      <point x="374" y="510"/>
      <point x="319" y="510" type="curve" smooth="yes"/>
      <point x="199" y="510"/>
      <point x="123" y="445"/>
      <point x="89" y="250" type="curve" smooth="yes"/>
      <point x="54" y="55"/>
      <point x="108" y="-10"/>
    </contour>
    <contour>
      <point x="237" y="45" type="curve" smooth="yes"/>
      <point x="187" y="45"/>
      <point x="150" y="90"/>
      <point x="179" y="250" type="curve" smooth="yes"/>
      <point x="207" y="410"/>
      <point x="260" y="455"/>
      <point x="310" y="455" type="curve" smooth="yes"/>
      <point x="360" y="455"/>
      <point x="397" y="410"/>
      <point x="369" y="250" type="curve" smooth="yes"/>
      <point x="340" y="90"/>
      <point x="287" y="45"/>
    </contour>
    <contour>
      <point x="464" y="280" type="line"/>
      <point x="488" y="415"/>
      <point x="535" y="455"/>
      <point x="590" y="455" type="curve" smooth="yes"/>
      <point x="640" y="455"/>
      <point x="669" y="420"/>
      <point x="658" y="360" type="curve" smooth="yes"/>
      <point x="649" y="310"/>
      <point x="614" y="280"/>
      <point x="559" y="280" type="curve" smooth="yes"/>
    </contour>
  </outline>
</glyph>
<glyph name="rcaron" format="2">
  <advance width="335"/>
  <unicode hex="0159"/>
  <outline>
    <contour>
      <point x="65" y="0" type="line"/>
      <point x="155" y="0" type="line"/>
      <point x="226" y="405" type="line"/>
      <point x="249" y="420"/>
      <point x="274" y="425"/>
      <point x="299" y="425" type="curve" smooth="yes"/>
      <point x="399" y="425" type="line"/>
      <point x="413" y="500" type="line"/>
      <point x="363" y="500" type="line" smooth="yes"/>
      <point x="303" y="500"/>
      <point x="259" y="480"/>
      <point x="232" y="460" type="curve"/>
      <point x="227" y="460" type="line"/>
      <point x="229" y="500" type="line"/>
      <point x="153" y="500" type="line"/>
    </contour>
    <contour>
      <point x="241" y="550" type="line"/>
      <point x="336" y="550" type="line"/>
      <point x="434" y="680" type="line"/>
      <point x="374" y="680" type="line"/>
      <point x="298" y="606" type="line"/>
      <point x="249" y="680" type="line"/>
      <point x="189" y="680" type="line"/>
    </contour>
  </outline>
</glyph>
<glyph name="scedilla" format="2">
  <advance width="395"/>
  <unicode hex="015F"/>
  <outline>
    <contour>
      <point x="190" y="-165" type="curve" smooth="yes"/>
      <point x="255" y="-165"/>
      <point x="291" y="-135"/>
      <point x="298" y="-95" type="curve" smooth="yes"/>
      <point x="305" y="-55"/>
      <point x="280" y="-25"/>
      <point x="225" y="-25" type="curve" smooth="yes"/>
      <point x="210" y="-25" type="line"/>
      <point x="213" y="-8" type="line"/>
      <point x="316" y="0"/>
      <point x="366" y="35"/>
      <point x="382" y="130" type="curve" smooth="yes"/>
      <point x="414" y="310"/>
      <point x="170" y="260"/>
      <point x="192" y="380" type="curve" smooth="yes"/>
      <point x="200" y="430"/>
      <point x="244" y="450"/>
      <point x="314" y="450" type="curve" smooth="yes"/>
      <point x="414" y="450" type="line"/>
      <point x="421" y="490" type="line"/>
      <point x="393" y="500"/>
      <point x="344" y="510"/>
      <point x="304" y="510" type="curve" smooth="yes"/>
      <point x="184" y="510"/>
      <point x="119" y="480"/>
      <point x="102" y="380" type="curve" smooth="yes"/>
      <point x="70" y="200"/>
      <point x="314" y="250"/>
      <point x="292" y="130" type="curve" smooth="yes"/>
      <point x="282" y="70"/>
      <point x="238" y="50"/>
      <point x="148" y="50" type="curve" smooth="yes"/>
      <point x="48" y="50" type="line"/>
      <point x="41" y="10" type="line"/>
      <point x="70" y="0"/>
      <point x="118.0" y="-10.0"/>
      <point x="163" y="-10" type="curve"/>
      <point x="152" y="-70" type="line"/>
      <point x="207" y="-70" type="line" smooth="yes"/>
      <point x="227" y="-70"/>
      <point x="235" y="-80"/>
      <point x="233" y="-95" type="curve" smooth="yes"/>
      <point x="230" y="-110"/>
      <point x="218" y="-120"/>
      <point x="188" y="-120" type="curve" smooth="yes"/>
      <point x="123" y="-120" type="line"/>
      <point x="118" y="-150" type="line"/>
      <point x="118" y="-150"/>
      <point x="145" y="-165"/>
    </contour>
  </outline>
</glyph>
<glyph name="florin" format="2">
  <advance width="330"/>
  <unicode hex="0192"/>
  <outline>
    <contour>
      <point x="2" y="-210" type="curve" smooth="yes"/>
      <point x="82" y="-210"/>
      <point x="148" y="-180"/>
      <point x="172" y="-40" type="curve" smooth="yes"/>
      <point x="254" y="425" type="line"/>
      <point x="274" y="425" type="line" smooth="yes"/>
      <point x="314" y="425"/>
      <point x="366" y="435"/>
      <point x="398" y="445" type="curve"/>
      <point x="406" y="490" type="line"/>
      <point x="266" y="490" type="line"/>
      <point x="273" y="530" type="line" smooth="yes"/>
      <point x="289" y="620"/>
      <point x="332" y="640"/>
      <point x="362" y="640" type="curve" smooth="yes"/>
      <point x="452" y="640" type="line"/>
      <point x="459" y="680" type="line"/>
      <point x="436" y="690"/>
      <point x="383" y="700"/>
      <point x="353" y="700" type="curve" smooth="yes"/>
      <point x="273" y="700"/>
      <point x="208" y="670"/>
      <point x="183" y="530" type="curve" smooth="yes"/>
      <point x="176" y="490" type="line"/>
      <point x="116" y="490" type="line"/>
      <point x="104" y="425" type="line"/>
      <point x="164" y="425" type="line"/>
      <point x="82" y="-40" type="line" smooth="yes"/>
      <point x="67" y="-130"/>
      <point x="23" y="-150"/>
      <point x="-6" y="-150" type="curve" smooth="yes"/>
      <point x="-96" y="-150" type="line"/>
      <point x="-103" y="-190" type="line"/>
      <point x="-80" y="-200"/>
      <point x="-27" y="-210"/>
    </contour>
  </outline>
</glyph>
<glyph name="circumflex" format="2">
  <advance width="285"/>
  <unicode hex="02C6"/>
  <outline>
    <contour>
      <point x="116" y="550" type="line"/>
      <point x="176" y="550" type="line"/>
      <point x="252" y="624" type="line"/>
      <point x="301" y="550" type="line"/>
      <point x="361" y="550" type="line"/>
      <point x="309" y="680" type="line"/>
      <point x="214" y="680" type="line"/>
    </contour>
  </outline>
</glyph>
<glyph name="tilde" format="2">
  <advance width="280"/>
  <unicode hex="02DC"/>
  <outline>
    <contour>
      <point x="287" y="565" type="curve" smooth="yes"/>
      <point x="337" y="565"/>
      <point x="364" y="597"/>
      <point x="379" y="670" type="curve"/>
      <point x="329" y="670" type="line"/>
      <point x="323" y="640"/>
      <point x="310" y="625"/>
      <point x="295" y="625" type="curve" smooth="yes"/>
      <point x="273" y="625"/>
      <point x="263" y="685"/>
      <point x="213" y="685" type="curve"/>
      <point x="162" y="685"/>
      <point x="135" y="651"/>
      <point x="120" y="580" type="curve"/>
      <point x="170" y="580" type="line"/>
      <point x="177" y="610"/>
      <point x="187" y="624"/>
      <point x="202" y="624" type="curve" smooth="yes"/>
      <point x="225" y="624"/>
      <point x="237" y="565"/>
    </contour>
  </outline>
</glyph>
<glyph name="strokeshortcomb" format="2">
  <unicode hex="0335"/>
  <anchor x="165" y="578" name="_center"/>
  <outline>
    <contour>
      <point x="14" y="545" type="line"/>
      <point x="184" y="545" type="line"/>
      <point x="224" y="545"/>
      <point x="276" y="555"/>
      <point x="308" y="565" type="curve"/>
      <point x="316" y="610" type="line"/>
      <point x="26" y="610" type="line"/>
    </contour>
  </outline>
</glyph>
<glyph name="Lje-cy" format="2">
  <advance width="790"/>
  <unicode hex="0409"/>
  <outline>
    <contour>
      <point x="58" y="-10" type="curve" smooth="yes"/>
      <point x="123" y="-10"/>
      <point x="190" y="50"/>
      <point x="227" y="210" type="curve" smooth="yes"/>
      <point x="323" y="630" type="line"/>
      <point x="481" y="630" type="line"/>
      <point x="371" y="10" type="line"/>
      <point x="419" y="-5"/>
      <point x="468" y="-10"/>
      <point x="528" y="-10" type="curve" smooth="yes"/>
      <point x="688" y="-10"/>
      <point x="758" y="50"/>
      <point x="786" y="205" type="curve" smooth="yes"/>
      <point x="814" y="365"/>
      <point x="764" y="425"/>
      <point x="634" y="425" type="curve" smooth="yes"/>
      <point x="604" y="425"/>
      <point x="559" y="420"/>
      <point x="533" y="415" type="curve"/>
      <point x="583" y="700" type="line"/>
      <point x="248" y="700" type="line"/>
      <point x="137" y="210" type="line" smooth="yes"/>
      <point x="108" y="85"/>
      <point x="62" y="45"/>
      <point x="7" y="45" type="curve"/>
      <point x="0" y="0" type="line"/>
      <point x="0" y="0"/>
      <point x="23" y="-10"/>
    </contour>
    <contour>
      <point x="469" y="55" type="line"/>
      <point x="522" y="355" type="line"/>
      <point x="592" y="355" type="line"/>
      <point x="682" y="355"/>
      <point x="715" y="315"/>
      <point x="696" y="205" type="curve" smooth="yes"/>
      <point x="676" y="95"/>
      <point x="629" y="55"/>
      <point x="539" y="55" type="curve" smooth="yes"/>
    </contour>
  </outline>
</glyph>
<glyph name="Softsign-cy" format="2">
  <advance width="490"/>
  <unicode hex="042C"/>
  <outline>
    <contour>
      <point x="228" y="-10" type="curve" smooth="yes"/>
      <point x="388" y="-10"/>
      <point x="458" y="50"/>
      <point x="486" y="205" type="curve" smooth="yes"/>
      <point x="514" y="365"/>
      <point x="464" y="425"/>
      <point x="334" y="425" type="curve" smooth="yes"/>
      <point x="304" y="425"/>
      <point x="259" y="420"/>
      <point x="233" y="415" type="curve"/>
      <point x="283" y="700" type="line"/>
      <point x="193" y="700" type="line"/>
      <point x="71" y="10" type="line"/>
      <point x="119" y="-5"/>
      <point x="168" y="-10"/>
    </contour>
    <contour>
      <point x="169" y="55" type="line"/>
      <point x="222" y="355" type="line"/>
      <point x="292" y="355" type="line"/>
      <point x="382" y="355"/>
      <point x="415" y="315"/>
      <point x="396" y="205" type="curve" smooth="yes"/>
      <point x="376" y="95"/>
      <point x="329" y="55"/>
      <point x="239" y="55" type="curve" smooth="yes"/>
    </contour>
  </outline>
</glyph>
<glyph name="el-cy" format="2">
  <advance width="471"/>
  <unicode hex="043B"/>
  <outline>
    <contour>
      <point x="53" y="-10" type="curve" smooth="yes"/>
      <point x="113" y="-10"/>
      <point x="170" y="40"/>
      <point x="198" y="160" type="curve" smooth="yes"/>
      <point x="262" y="435" type="line"/>
      <point x="392" y="435" type="line"/>
      <point x="316" y="0" type="line"/>
      <point x="406" y="0" type="line"/>
      <point x="494" y="500" type="line"/>
      <point x="188" y="500" type="line"/>
      <point x="108" y="160" type="line" smooth="yes"/>
      <point x="88" y="75"/>
      <point x="47" y="40"/>
      <point x="7" y="40" type="curve"/>
      <point x="0" y="0" type="line"/>
      <point x="1" y="0"/>
      <point x="23" y="-10"/>
    </contour>
  </outline>
</glyph>
<glyph name="ereversed-cy" format="2">
  <advance width="375"/>
  <unicode hex="044D"/>
  <outline>
    <contour>
      <point x="133" y="-10" type="curve" smooth="yes"/>
      <point x="268" y="-10"/>
      <point x="338" y="50"/>
      <point x="374" y="250" type="curve" smooth="yes"/>
      <point x="409" y="450"/>
      <point x="359" y="510"/>
      <point x="234" y="510" type="curve" smooth="yes"/>
      <point x="194" y="510"/>
      <point x="143" y="500"/>
      <point x="111" y="490" type="curve"/>
      <point x="104" y="450" type="line"/>
      <point x="204" y="450" type="line" smooth="yes"/>
      <point x="279" y="450"/>
      <point x="306" y="405"/>
      <point x="291" y="290" type="curve"/>
      <point x="136" y="290" type="line"/>
      <point x="124" y="225" type="line"/>
      <point x="279" y="225" type="line"/>
      <point x="250" y="90"/>
      <point x="208" y="50"/>
      <point x="123" y="50" type="curve" smooth="yes"/>
      <point x="23" y="50" type="line"/>
      <point x="16" y="10" type="line"/>
      <point x="45" y="0"/>
      <point x="93" y="-10"/>
    </contour>
  </outline>
</glyph>
<glyph name="dzhe-cy" format="2">
  <advance width="475"/>
  <unicode hex="045F"/>
  <outline>
    <contour>
      <point x="182" y="-140" type="line"/>
      <point x="242" y="-140" type="line"/>
      <point x="282" y="0" type="line"/>
      <point x="410" y="0" type="line"/>
      <point x="498" y="500" type="line"/>
      <point x="408" y="500" type="line"/>
      <point x="331" y="65" type="line"/>
      <point x="166" y="65" type="line"/>
      <point x="243" y="500" type="line"/>
      <point x="153" y="500" type="line"/>
      <point x="65" y="0" type="line"/>
      <point x="192" y="0" type="line"/>
    </contour>
  </outline>
</glyph>
<glyph name="Fita-cy" format="2">
  <advance width="530"/>
  <unicode hex="0472"/>
  <anchor x="326" y="350" name="center"/>
  <anchor x="388" y="700" name="top"/>
  <outline>
    <contour>
      <point x="263" y="-10" type="curve" smooth="yes"/>
      <point x="398" y="-10"/>
      <point x="492" y="70"/>
      <point x="541" y="350" type="curve" smooth="yes"/>
      <point x="590" y="630"/>
      <point x="524" y="710"/>
      <point x="389" y="710" type="curve" smooth="yes"/>
      <point x="254" y="710"/>
      <point x="160" y="630"/>
      <point x="111" y="350" type="curve" smooth="yes"/>
      <point x="62" y="70"/>
      <point x="128" y="-10"/>
    </contour>
    <contour>
      <point x="273" y="50" type="curve" smooth="yes"/>
      <point x="208" y="50"/>
      <point x="159" y="110"/>
      <point x="201" y="350" type="curve" smooth="yes"/>
      <point x="243" y="590"/>
      <point x="314" y="650"/>
      <point x="379" y="650" type="curve" smooth="yes"/>
      <point x="444" y="650"/>
      <point x="493" y="590"/>
      <point x="451" y="350" type="curve" smooth="yes"/>
      <point x="409" y="110"/>
      <point x="338" y="50"/>
    </contour>
    <contour>
      <point x="175" y="317" type="line"/>
      <point x="345" y="317" type="line"/>
      <point x="385" y="317"/>
      <point x="437" y="327"/>
      <point x="469" y="337" type="curve"/>
      <point x="477" y="382" type="line"/>
      <point x="187" y="382" type="line"/>
    </contour>
  </outline>
</glyph>
<glyph name="izhitsa-cy" format="2">
  <advance width="460"/>
  <unicode hex="0475"/>
  <outline>
    <contour>
      <point x="150" y="0" type="line"/>
      <point x="280" y="0" type="line"/>
      <point x="454" y="390" type="line" smooth="yes"/>
      <point x="477" y="440"/>
      <point x="510" y="460"/>
      <point x="546" y="460" type="curve"/>
      <point x="553" y="500" type="line"/>
      <point x="553" y="500"/>
      <point x="531" y="510"/>
      <point x="500" y="510" type="curve" smooth="yes"/>
      <point x="454" y="510"/>
      <point x="410" y="482"/>
      <point x="379" y="412" type="curve" smooth="yes"/>
      <point x="232" y="85" type="line"/>
      <point x="228" y="85" type="line"/>
      <point x="188" y="500" type="line"/>
      <point x="103" y="500" type="line"/>
    </contour>
  </outline>
</glyph>
<glyph name="gheupturn-cy" format="2">
  <advance width="365"/>
  <unicode hex="0491"/>
  <outline>
    <contour>
      <point x="65" y="0" type="line"/>
      <point x="155" y="0" type="line"/>
      <point x="231" y="435" type="line"/>
      <point x="431" y="435" type="line"/>
      <point x="459" y="590" type="line"/>
      <point x="394" y="590" type="line"/>
      <point x="370" y="500" type="line"/>
      <point x="153" y="500" type="line"/>
    </contour>
  </outline>
</glyph>
<glyph name="ghemiddlehook-cy" format="2">
  <advance width="440"/>
  <unicode hex="0495"/>
  <anchor x="65" y="0" name="bottomright"/>
  <anchor x="196" y="250" name="center"/>
  <anchor x="313" y="500" name="top"/>
  <outline>
    <contour>
      <point x="65" y="0" type="line"/>
      <point x="155" y="0" type="line"/>
      <point x="232" y="435" type="line"/>
      <point x="432" y="435" type="line"/>
      <point x="443" y="500" type="line"/>
      <point x="153" y="500" type="line"/>
    </contour>
    <contour>
      <point x="249" y="-90" type="curve" smooth="yes"/>
      <point x="334" y="-90"/>
      <point x="381" y="-50"/>
      <point x="402" y="70" type="curve"/>
      <point x="413" y="130" type="line" smooth="yes"/>
      <point x="434" y="250"/>
      <point x="379" y="280"/>
      <point x="294" y="280" type="curve" smooth="yes"/>
      <point x="249" y="280"/>
      <point x="213" y="274"/>
      <point x="182" y="265" type="curve"/>
      <point x="174" y="220" type="line"/>
      <point x="199" y="224"/>
      <point x="221" y="226"/>
      <point x="239" y="226" type="curve" smooth="yes"/>
      <point x="312" y="226"/>
      <point x="334" y="194"/>
      <point x="323" y="130" type="curve" smooth="yes"/>
      <point x="312" y="70" type="line"/>
      <point x="298" y="-10"/>
      <point x="275" y="-30"/>
      <point x="235" y="-30" type="curve" smooth="yes"/>
      <point x="195" y="-30" type="line"/>
      <point x="188" y="-70" type="line"/>
      <point x="205" y="-85"/>
      <point x="224" y="-90"/>
    </contour>
  </outline>
</glyph>
<glyph name="Kaverticalstroke-cy" format="2">
  <advance width="515"/>
  <unicode hex="049C"/>
  <anchor x="289" y="363" name="_center"/>
  <outline>
    <contour>
      <point x="449" y="-10" type="curve" smooth="yes"/>
      <point x="484" y="-10"/>
      <point x="510" y="0"/>
      <point x="510" y="0" type="curve"/>
      <point x="518" y="45" type="line"/>
      <point x="468" y="45"/>
      <point x="451" y="75"/>
      <point x="450" y="110" type="curve" smooth="yes"/>
      <point x="448" y="240" type="line" smooth="yes"/>
      <point x="446" y="324"/>
      <point x="417" y="350"/>
      <point x="369" y="363" type="curve"/>
      <point x="370" y="367" type="line"/>
      <point x="417" y="380"/>
      <point x="446" y="407"/>
      <point x="482" y="490" type="curve" smooth="yes"/>
      <point x="524" y="590" type="line" smooth="yes"/>
      <point x="541" y="630"/>
      <point x="566" y="655"/>
      <point x="616" y="655" type="curve"/>
      <point x="624" y="700" type="line"/>
      <point x="624" y="700"/>
      <point x="600" y="710"/>
      <point x="565" y="710" type="curve" smooth="yes"/>
      <point x="510" y="710"/>
      <point x="463" y="670"/>
      <point x="429" y="590" type="curve" smooth="yes"/>
      <point x="387" y="490" type="line" smooth="yes"/>
      <point x="358" y="421"/>
      <point x="321" y="400"/>
      <point x="286" y="400" type="curve" smooth="yes"/>
      <point x="231" y="400" type="line"/>
      <point x="284" y="700" type="line"/>
      <point x="194" y="700" type="line"/>
      <point x="70" y="0" type="line"/>
      <point x="160" y="0" type="line"/>
      <point x="218" y="330" type="line"/>
      <point x="273" y="330" type="line" smooth="yes"/>
      <point x="318" y="330"/>
      <point x="352" y="310"/>
      <point x="353" y="240" type="curve" smooth="yes"/>
      <point x="355" y="110" type="line" smooth="yes"/>
      <point x="356" y="30"/>
      <point x="389" y="-10"/>
    </contour>
    <contour>
      <point x="242" y="218" type="line"/>
      <point x="286" y="218" type="line"/>
      <point x="337" y="508" type="line"/>
      <point x="293" y="508" type="line"/>
    </contour>
  </outline>
</glyph>
<glyph name="ustraitstroke-cy" format="2">
  <advance width="430"/>
  <unicode hex="04B1"/>
  <anchor x="213" y="-10" name="center"/>
  <outline>
    <contour>
      <point x="135" y="-200" type="line"/>
      <point x="225" y="-200" type="line"/>
      <point x="253" y="-26" type="line"/>
      <point x="503" y="500" type="line"/>
      <point x="418" y="500" type="line"/>
      <point x="237" y="115" type="line"/>
      <point x="233" y="115" type="line"/>
      <point x="188" y="500" type="line"/>
      <point x="103" y="500" type="line"/>
      <point x="166" y="-24" type="line"/>
    </contour>
    <contour>
      <point x="62" y="-43" type="line"/>
      <point x="232" y="-43" type="line"/>
      <point x="272" y="-43"/>
      <point x="324" y="-33"/>
      <point x="355" y="-23" type="curve"/>
      <point x="363" y="22" type="line"/>
      <point x="73" y="22" type="line"/>
    </contour>
  </outline>
</glyph>
<glyph name="foursuperior" format="2">
  <advance width="300"/>
  <unicode hex="2074"/>
  <outline>
    <contour>
      <point x="239" y="400" type="line"/>
      <point x="304" y="400" type="line"/>
      <point x="315" y="465" type="line"/>
      <point x="345" y="465" type="line"/>
      <point x="354" y="515" type="line"/>
      <point x="324" y="515" type="line"/>
      <point x="356" y="700" type="line"/>
      <point x="286" y="700" type="line"/>
      <point x="114" y="515" type="line"/>
      <point x="105" y="465" type="line"/>
      <point x="250" y="465" type="line"/>
    </contour>
    <contour>
      <point x="184" y="515" type="line"/>
      <point x="276" y="613" type="line"/>
      <point x="259" y="515" type="line"/>
    </contour>
  </outline>
</glyph>
<glyph name="brevecomb-cy.case" format="2">
  <anchor x="272" y="700" name="_top"/>
  <outline>
    <contour>
      <point x="280" y="760" type="curve"/>
      <point x="345" y="760"/>
      <point x="400" y="790"/>
      <point x="433" y="835" type="curve"/>
      <point x="400" y="875" type="line"/>
      <point x="376" y="855"/>
      <point x="337" y="830"/>
      <point x="292" y="830" type="curve" smooth="yes"/>
      <point x="247" y="830"/>
      <point x="216" y="855"/>
      <point x="200" y="875" type="curve"/>
      <point x="153" y="835" type="line"/>
      <point x="170" y="790"/>
      <point x="215" y="760"/>
    </contour>
  </outline>
</glyph>
<glyph name="descender-cy.case" format="2">
  <advance width="206"/>
  <guideline x="24" y="385" angle="90"/>
  <guideline x="13" y="70" angle="0"/>
  <anchor x="-44" y="0" name="_bottomright"/>
  <outline>
    <contour>
      <point x="30" y="-150" type="curve"/>
      <point x="85" y="-150" type="line"/>
      <point x="123" y="70" type="line"/>
      <point x="-32" y="70" type="line"/>
      <point x="-44" y="0" type="line"/>
      <point x="26" y="0" type="line"/>
      <point x="20" y="-60"/>
      <point x="22" y="-110"/>
    </contour>
  </outline>
</glyph>
<glyph name="descender-cy" format="2">
  <advance width="201"/>
  <guideline x="6" y="283" angle="90"/>
  <guideline x="88" y="65" angle="180"/>
  <anchor x="-44" y="0" name="_bottomright"/>
  <outline>
    <contour>
      <point x="25" y="-145" type="curve"/>
      <point x="80" y="-145" type="line"/>
      <point x="118" y="65" type="line"/>
      <point x="-32" y="65" type="line"/>
      <point x="-44" y="0" type="line"/>
      <point x="21" y="0" type="line"/>
      <point x="17" y="-50"/>
      <point x="18" y="-105"/>
    </contour>
  </outline>
</glyph>
